#!OML:ASF H:\Terrain\Patient Classification 1\Terrain2\Thursday\justin.ASF
:FULLY-SPECIFIED
:DEGREES
1859
root 18.1373 23.9193 20.4825 379.144 87.55 19.5843
lowerback 13.1771 0.71801 -2.2721
upperback 2.06284 0.731716 0.315113
thorax -5.24618 0.438868 1.48383
lowerneck -14.2571 -1.73508 -7.63871
upperneck 35.1504 -0.351539 3.79475
head 14.5368 -0.23791 2.96344
rclavicle -7.45443e-015 1.88845e-015
rhumerus -29.987 -4.73599 -83.577
rradius 31.9276
rwrist -11.5434
rhand -21.7984 9.92108
rfingers 7.12502
rthumb 4.6034 -20.0089
lclavicle -7.45443e-015 1.88845e-015
lhumerus -30.7604 -1.35493 86.0559
lradius 36.1186
lwrist 6.64528
lhand -22.5441 21.1836
lfingers 7.12502
lthumb 3.8834 51.128
rfemur -43.9683 -13.4402 21.3316
rtibia 84.0257
rfoot -10.1504 -3.16343
rtoes 11.146
lfemur -10.209 2.90735 -25.2738
ltibia 29.656
lfoot -13.6905 -11.5135
ltoes 15.8128
1860
root 18.2404 23.918 20.4905 386.725 87.771 27.409
lowerback 13.2164 0.615711 -2.59212
upperback 2.09228 0.555047 0.365708
thorax -5.2322 0.358525 1.74883
lowerneck -14.1314 -1.6874 -7.64268
upperneck 35.1222 -0.26793 3.74028
head 14.4889 -0.208199 2.9529
rclavicle 2.80783e-015 -7.95139e-016
rhumerus -30.0968 -4.5241 -83.4798
rradius 32.0864
rwrist -12.2332
rhand -22.0934 9.51445
rfingers 7.12502
rthumb 4.31863 -20.4215
lclavicle 2.80783e-015 -7.95139e-016
lhumerus -30.4923 -1.49207 86.0952
lradius 35.9562
lwrist 6.97241
lhand -22.576 21.3616
lfingers 7.12502
lthumb 3.85254 51.3065
rfemur -44.1911 -13.26 21.1784
rtibia 82.4221
rfoot -10.6812 -2.61572
rtoes 18.7957
lfemur -9.48594 2.79803 -25.4791
ltibia 29.5371
lfoot -14.063 -11.2899
ltoes 12.1361
1861
root 18.343 23.9084 20.4908 395.115 87.8409 35.9648
lowerback 13.1384 0.471862 -2.92003
upperback 2.16361 0.326379 0.407311
thorax -5.10399 0.250589 2.01833
lowerneck -14.0453 -1.56245 -7.78895
upperneck 35.0018 -0.0802344 3.80985
head 14.3992 -0.137571 3.03138
rclavicle -1.16786e-015 7.35503e-015
rhumerus -29.9696 -4.16603 -83.3456
rradius 31.9937
rwrist -12.3792
rhand -22.0052 9.2619
rfingers 7.12502
rthumb 4.4037 -20.6723
lclavicle -1.16786e-015 7.35503e-015
lhumerus -30.3545 -0.992765 86.024
lradius 35.9499
lwrist 6.66637
lhand -22.6482 21.2796
lfingers 7.12502
lthumb 3.7828 51.2258
rfemur -44.5216 -13.3234 21.2486
rtibia 80.6796
rfoot -10.5205 -2.77425
rtoes 17.5013
lfemur -8.94986 2.4212 -25.7728
ltibia 29.6368
lfoot -14.0376 -11.2645
ltoes 13.8104
1862
root 18.4533 23.8954 20.4915 393.199 87.9826 34.1443
lowerback 12.9221 0.431886 -2.78312
upperback 2.2135 0.303816 0.479692
thorax -4.93072 0.234647 2.02112
lowerneck -14.2124 -1.55218 -7.79046
upperneck 35.29 -0.0395869 3.84298
head 14.568 -0.116234 3.06599
rclavicle 3.8266e-015 2.88238e-015
rhumerus -29.9218 -4.57154 -83.0417
rradius 31.729
rwrist -11.9935
rhand -21.9368 9.48368
rfingers 7.12502
rthumb 4.46978 -20.4492
lclavicle 3.8266e-015 2.88238e-015
lhumerus -30.3969 -0.667441 86.0617
lradius 36.027
lwrist 6.29433
lhand -22.7834 20.913
lfingers 7.12502
lthumb 3.65227 50.8615
rfemur -44.7043 -13.1327 21.7325
rtibia 78.7569
rfoot -10.1184 -2.97584
rtoes 13.4293
lfemur -8.54462 2.27105 -25.648
ltibia 29.8084
lfoot -13.7631 -11.6746
ltoes 18.5052
1863
root 18.5647 23.8928 20.4972 390.277 88.2435 31.3152
lowerback 12.771 0.446976 -2.61438
upperback 2.18217 0.35343 0.566748
thorax -4.88297 0.255759 2.00896
lowerneck -14.354 -1.66639 -7.59549
upperneck 35.7968 -0.164729 3.71891
head 14.8495 -0.158346 2.98347
rclavicle 1.68967e-015 4.96962e-015
rhumerus -30.1662 -5.25484 -82.7562
rradius 31.6395
rwrist -11.9184
rhand -22.1717 9.69766
rfingers 7.12502
rthumb 4.243 -20.2398
lclavicle 1.68967e-015 4.96962e-015
lhumerus -30.5246 -0.635507 86.1855
lradius 36.0356
lwrist 6.02726
lhand -23.062 20.6722
lfingers 7.12502
lthumb 3.3832 50.6251
rfemur -44.7608 -12.7967 22.1196
rtibia 76.7865
rfoot -9.65966 -2.90385
rtoes 11.9898
lfemur -8.21552 2.41824 -25.3861
ltibia 30.0296
lfoot -13.5689 -12.1361
ltoes 20.2418
